<?xml version="1.0" encoding="UTF-8" standalone="no"?>
<!DOCTYPE svg PUBLIC "-//W3C//DTD SVG 1.1//EN"
 "http://www.w3.org/Graphics/SVG/1.1/DTD/svg11.dtd">
<!-- Generated by graphviz version 2.40.1 (20161225.0304)
 -->
<!-- Title: G Pages: 1 -->
<svg width="314pt" height="2742pt"
 viewBox="0.00 0.00 314.00 2742.00" xmlns="http://www.w3.org/2000/svg" xmlns:xlink="http://www.w3.org/1999/xlink">
<g id="graph0" class="graph" transform="scale(1 1) rotate(0) translate(4 2738)">
<title>G</title>
<polygon fill="#ffffff" stroke="transparent" points="-4,4 -4,-2738 310,-2738 310,4 -4,4"/>
<g id="clust1" class="cluster">
<title>cluster_Global</title>
<path fill="none" stroke="#c0c0c0" d="M20,-8C20,-8 286,-8 286,-8 292,-8 298,-14 298,-20 298,-20 298,-2714 298,-2714 298,-2720 292,-2726 286,-2726 286,-2726 20,-2726 20,-2726 14,-2726 8,-2720 8,-2714 8,-2714 8,-20 8,-20 8,-14 14,-8 20,-8"/>
<text text-anchor="middle" x="153" y="-2713.2" font-family="Times,serif" font-size="11.00" fill="#c0c0c0">Global</text>
</g>
<!-- \\DB -->
<g id="node1" class="node">
<title>\\DB</title>
<polygon fill="none" stroke="#000000" points="248,-2698 194,-2698 194,-2662 248,-2662 248,-2698"/>
<text text-anchor="middle" x="221" y="-2677.2" font-family="Courier,monospace" font-size="11.00" fill="#000000">DB</text>
</g>
<!-- \\ajax -->
<g id="node2" class="node">
<title>\\ajax</title>
<polygon fill="none" stroke="#000000" points="248,-2644 194,-2644 194,-2608 248,-2608 248,-2644"/>
<text text-anchor="middle" x="221" y="-2623.2" font-family="Courier,monospace" font-size="11.00" fill="#000000">ajax</text>
</g>
<!-- \\cache -->
<g id="node3" class="node">
<title>\\cache</title>
<polygon fill="none" stroke="#000000" points="248,-2590 194,-2590 194,-2554 248,-2554 248,-2590"/>
<text text-anchor="middle" x="221" y="-2569.2" font-family="Courier,monospace" font-size="11.00" fill="#000000">cache</text>
</g>
<!-- \\cmd -->
<g id="node4" class="node">
<title>\\cmd</title>
<polygon fill="none" stroke="#000000" points="248,-2536 194,-2536 194,-2500 248,-2500 248,-2536"/>
<text text-anchor="middle" x="221" y="-2515.2" font-family="Courier,monospace" font-size="11.00" fill="#000000">cmd</text>
</g>
<!-- \\config -->
<g id="node5" class="node">
<title>\\config</title>
<polygon fill="none" stroke="#000000" points="249.5,-2482 192.5,-2482 192.5,-2446 249.5,-2446 249.5,-2482"/>
<text text-anchor="middle" x="221" y="-2461.2" font-family="Courier,monospace" font-size="11.00" fill="#000000">config</text>
</g>
<!-- \\cron -->
<g id="node6" class="node">
<title>\\cron</title>
<polygon fill="none" stroke="#000000" points="248,-2428 194,-2428 194,-2392 248,-2392 248,-2428"/>
<text text-anchor="middle" x="221" y="-2407.2" font-family="Courier,monospace" font-size="11.00" fill="#000000">cron</text>
</g>
<!-- \\dataStore -->
<g id="node7" class="node">
<title>\\dataStore</title>
<polygon fill="none" stroke="#000000" points="259.5,-2374 182.5,-2374 182.5,-2338 259.5,-2338 259.5,-2374"/>
<text text-anchor="middle" x="221" y="-2353.2" font-family="Courier,monospace" font-size="11.00" fill="#000000">dataStore</text>
</g>
<!-- \\eqLogic -->
<g id="node8" class="node">
<title>\\eqLogic</title>
<polygon fill="none" stroke="#000000" points="253,-2320 189,-2320 189,-2284 253,-2284 253,-2320"/>
<text text-anchor="middle" x="221" y="-2299.2" font-family="Courier,monospace" font-size="11.00" fill="#000000">eqLogic</text>
</g>
<!-- \\event -->
<g id="node9" class="node">
<title>\\event</title>
<polygon fill="none" stroke="#000000" points="248,-2266 194,-2266 194,-2230 248,-2230 248,-2266"/>
<text text-anchor="middle" x="221" y="-2245.2" font-family="Courier,monospace" font-size="11.00" fill="#000000">event</text>
</g>
<!-- \\history -->
<g id="node10" class="node">
<title>\\history</title>
<polygon fill="none" stroke="#000000" points="80,-2212 16,-2212 16,-2176 80,-2176 80,-2212"/>
<text text-anchor="middle" x="48" y="-2191.2" font-family="Courier,monospace" font-size="11.00" fill="#000000">history</text>
</g>
<!-- \\historyArch -->
<g id="node11" class="node">
<title>\\historyArch</title>
<polygon fill="none" stroke="#000000" points="266.5,-2212 175.5,-2212 175.5,-2176 266.5,-2176 266.5,-2212"/>
<text text-anchor="middle" x="221" y="-2191.2" font-family="Courier,monospace" font-size="11.00" fill="#000000">historyArch</text>
</g>
<!-- \\historyArch&#45;&gt;\\history -->
<g id="edge1" class="edge">
<title>\\historyArch&#45;&gt;\\history</title>
<path fill="none" stroke="#000000" d="M175.0934,-2194C148.7873,-2194 116.0034,-2194 90.3216,-2194"/>
<polygon fill="none" stroke="#000000" points="90.1464,-2190.5001 80.1464,-2194 90.1464,-2197.5001 90.1464,-2190.5001"/>
</g>
<!-- \\interactDef -->
<g id="node12" class="node">
<title>\\interactDef</title>
<polygon fill="none" stroke="#000000" points="266.5,-2158 175.5,-2158 175.5,-2122 266.5,-2122 266.5,-2158"/>
<text text-anchor="middle" x="221" y="-2137.2" font-family="Courier,monospace" font-size="11.00" fill="#000000">interactDef</text>
</g>
<!-- \\interactQuery -->
<g id="node13" class="node">
<title>\\interactQuery</title>
<polygon fill="none" stroke="#000000" points="273,-2104 169,-2104 169,-2068 273,-2068 273,-2104"/>
<text text-anchor="middle" x="221" y="-2083.2" font-family="Courier,monospace" font-size="11.00" fill="#000000">interactQuery</text>
</g>
<!-- \\jeeObject -->
<g id="node14" class="node">
<title>\\jeeObject</title>
<polygon fill="none" stroke="#000000" points="259.5,-2050 182.5,-2050 182.5,-2014 259.5,-2014 259.5,-2050"/>
<text text-anchor="middle" x="221" y="-2029.2" font-family="Courier,monospace" font-size="11.00" fill="#000000">jeeObject</text>
</g>
<!-- \\jeedom -->
<g id="node15" class="node">
<title>\\jeedom</title>
<polygon fill="none" stroke="#000000" points="249.5,-1996 192.5,-1996 192.5,-1960 249.5,-1960 249.5,-1996"/>
<text text-anchor="middle" x="221" y="-1975.2" font-family="Courier,monospace" font-size="11.00" fill="#000000">jeedom</text>
</g>
<!-- \\jsonrpc -->
<g id="node16" class="node">
<title>\\jsonrpc</title>
<polygon fill="none" stroke="#000000" points="253,-1942 189,-1942 189,-1906 253,-1906 253,-1942"/>
<text text-anchor="middle" x="221" y="-1921.2" font-family="Courier,monospace" font-size="11.00" fill="#000000">jsonrpc</text>
</g>
<!-- \\jsonrpcClient -->
<g id="node17" class="node">
<title>\\jsonrpcClient</title>
<polygon fill="none" stroke="#000000" points="273,-1888 169,-1888 169,-1852 273,-1852 273,-1888"/>
<text text-anchor="middle" x="221" y="-1867.2" font-family="Courier,monospace" font-size="11.00" fill="#000000">jsonrpcClient</text>
</g>
<!-- \\listener -->
<g id="node18" class="node">
<title>\\listener</title>
<polygon fill="none" stroke="#000000" points="256.5,-1834 185.5,-1834 185.5,-1798 256.5,-1798 256.5,-1834"/>
<text text-anchor="middle" x="221" y="-1813.2" font-family="Courier,monospace" font-size="11.00" fill="#000000">listener</text>
</g>
<!-- \\log -->
<g id="node19" class="node">
<title>\\log</title>
<polygon fill="none" stroke="#000000" points="248,-1780 194,-1780 194,-1744 248,-1744 248,-1780"/>
<text text-anchor="middle" x="221" y="-1759.2" font-family="Courier,monospace" font-size="11.00" fill="#000000">log</text>
</g>
<!-- \\message -->
<g id="node20" class="node">
<title>\\message</title>
<polygon fill="none" stroke="#000000" points="253,-1726 189,-1726 189,-1690 253,-1690 253,-1726"/>
<text text-anchor="middle" x="221" y="-1705.2" font-family="Courier,monospace" font-size="11.00" fill="#000000">message</text>
</g>
<!-- \\migrate -->
<g id="node21" class="node">
<title>\\migrate</title>
<polygon fill="none" stroke="#000000" points="253,-1672 189,-1672 189,-1636 253,-1636 253,-1672"/>
<text text-anchor="middle" x="221" y="-1651.2" font-family="Courier,monospace" font-size="11.00" fill="#000000">migrate</text>
</g>
<!-- \\network -->
<g id="node22" class="node">
<title>\\network</title>
<polygon fill="none" stroke="#000000" points="253,-1618 189,-1618 189,-1582 253,-1582 253,-1618"/>
<text text-anchor="middle" x="221" y="-1597.2" font-family="Courier,monospace" font-size="11.00" fill="#000000">network</text>
</g>
<!-- \\note -->
<g id="node23" class="node">
<title>\\note</title>
<polygon fill="none" stroke="#000000" points="248,-1564 194,-1564 194,-1528 248,-1528 248,-1564"/>
<text text-anchor="middle" x="221" y="-1543.2" font-family="Courier,monospace" font-size="11.00" fill="#000000">note</text>
</g>
<!-- \\plan -->
<g id="node24" class="node">
<title>\\plan</title>
<polygon fill="none" stroke="#000000" points="248,-1510 194,-1510 194,-1474 248,-1474 248,-1510"/>
<text text-anchor="middle" x="221" y="-1489.2" font-family="Courier,monospace" font-size="11.00" fill="#000000">plan</text>
</g>
<!-- \\plan3d -->
<g id="node25" class="node">
<title>\\plan3d</title>
<polygon fill="none" stroke="#000000" points="249.5,-1456 192.5,-1456 192.5,-1420 249.5,-1420 249.5,-1456"/>
<text text-anchor="middle" x="221" y="-1435.2" font-family="Courier,monospace" font-size="11.00" fill="#000000">plan3d</text>
</g>
<!-- \\plan3dHeader -->
<g id="node26" class="node">
<title>\\plan3dHeader</title>
<polygon fill="none" stroke="#000000" points="270,-1402 172,-1402 172,-1366 270,-1366 270,-1402"/>
<text text-anchor="middle" x="221" y="-1381.2" font-family="Courier,monospace" font-size="11.00" fill="#000000">plan3dHeader</text>
</g>
<!-- \\planHeader -->
<g id="node27" class="node">
<title>\\planHeader</title>
<polygon fill="none" stroke="#000000" points="263,-1348 179,-1348 179,-1312 263,-1312 263,-1348"/>
<text text-anchor="middle" x="221" y="-1327.2" font-family="Courier,monospace" font-size="11.00" fill="#000000">planHeader</text>
</g>
<!-- \\plugin -->
<g id="node28" class="node">
<title>\\plugin</title>
<polygon fill="none" stroke="#000000" points="249.5,-1294 192.5,-1294 192.5,-1258 249.5,-1258 249.5,-1294"/>
<text text-anchor="middle" x="221" y="-1273.2" font-family="Courier,monospace" font-size="11.00" fill="#000000">plugin</text>
</g>
<!-- \\report -->
<g id="node29" class="node">
<title>\\report</title>
<polygon fill="none" stroke="#000000" points="249.5,-1240 192.5,-1240 192.5,-1204 249.5,-1204 249.5,-1240"/>
<text text-anchor="middle" x="221" y="-1219.2" font-family="Courier,monospace" font-size="11.00" fill="#000000">report</text>
</g>
<!-- \\scenario -->
<g id="node30" class="node">
<title>\\scenario</title>
<polygon fill="none" stroke="#000000" points="256.5,-1186 185.5,-1186 185.5,-1150 256.5,-1150 256.5,-1186"/>
<text text-anchor="middle" x="221" y="-1165.2" font-family="Courier,monospace" font-size="11.00" fill="#000000">scenario</text>
</g>
<!-- \\scenarioElement -->
<g id="node31" class="node">
<title>\\scenarioElement</title>
<polygon fill="none" stroke="#000000" points="280,-1132 162,-1132 162,-1096 280,-1096 280,-1132"/>
<text text-anchor="middle" x="221" y="-1111.2" font-family="Courier,monospace" font-size="11.00" fill="#000000">scenarioElement</text>
</g>
<!-- \\scenarioExpression -->
<g id="node32" class="node">
<title>\\scenarioExpression</title>
<polygon fill="none" stroke="#000000" points="290,-1078 152,-1078 152,-1042 290,-1042 290,-1078"/>
<text text-anchor="middle" x="221" y="-1057.2" font-family="Courier,monospace" font-size="11.00" fill="#000000">scenarioExpression</text>
</g>
<!-- \\scenarioSubElement -->
<g id="node33" class="node">
<title>\\scenarioSubElement</title>
<polygon fill="none" stroke="#000000" points="290,-1024 152,-1024 152,-988 290,-988 290,-1024"/>
<text text-anchor="middle" x="221" y="-1003.2" font-family="Courier,monospace" font-size="11.00" fill="#000000">scenarioSubElement</text>
</g>
<!-- \\system -->
<g id="node34" class="node">
<title>\\system</title>
<polygon fill="none" stroke="#000000" points="249.5,-970 192.5,-970 192.5,-934 249.5,-934 249.5,-970"/>
<text text-anchor="middle" x="221" y="-949.2" font-family="Courier,monospace" font-size="11.00" fill="#000000">system</text>
</g>
<!-- \\timeline -->
<g id="node35" class="node">
<title>\\timeline</title>
<polygon fill="none" stroke="#000000" points="256.5,-916 185.5,-916 185.5,-880 256.5,-880 256.5,-916"/>
<text text-anchor="middle" x="221" y="-895.2" font-family="Courier,monospace" font-size="11.00" fill="#000000">timeline</text>
</g>
<!-- \\translate -->
<g id="node36" class="node">
<title>\\translate</title>
<polygon fill="none" stroke="#000000" points="259.5,-862 182.5,-862 182.5,-826 259.5,-826 259.5,-862"/>
<text text-anchor="middle" x="221" y="-841.2" font-family="Courier,monospace" font-size="11.00" fill="#000000">translate</text>
</g>
<!-- \\update -->
<g id="node37" class="node">
<title>\\update</title>
<polygon fill="none" stroke="#000000" points="249.5,-808 192.5,-808 192.5,-772 249.5,-772 249.5,-808"/>
<text text-anchor="middle" x="221" y="-787.2" font-family="Courier,monospace" font-size="11.00" fill="#000000">update</text>
</g>
<!-- \\user -->
<g id="node38" class="node">
<title>\\user</title>
<polygon fill="none" stroke="#000000" points="248,-754 194,-754 194,-718 248,-718 248,-754"/>
<text text-anchor="middle" x="221" y="-733.2" font-family="Courier,monospace" font-size="11.00" fill="#000000">user</text>
</g>
<!-- \\utils -->
<g id="node39" class="node">
<title>\\utils</title>
<polygon fill="none" stroke="#000000" points="248,-700 194,-700 194,-664 248,-664 248,-700"/>
<text text-anchor="middle" x="221" y="-679.2" font-family="Courier,monospace" font-size="11.00" fill="#000000">utils</text>
</g>
<!-- \\view -->
<g id="node40" class="node">
<title>\\view</title>
<polygon fill="none" stroke="#000000" points="248,-646 194,-646 194,-610 248,-610 248,-646"/>
<text text-anchor="middle" x="221" y="-625.2" font-family="Courier,monospace" font-size="11.00" fill="#000000">view</text>
</g>
<!-- \\viewData -->
<g id="node41" class="node">
<title>\\viewData</title>
<polygon fill="none" stroke="#000000" points="256.5,-592 185.5,-592 185.5,-556 256.5,-556 256.5,-592"/>
<text text-anchor="middle" x="221" y="-571.2" font-family="Courier,monospace" font-size="11.00" fill="#000000">viewData</text>
</g>
<!-- \\viewZone -->
<g id="node42" class="node">
<title>\\viewZone</title>
<polygon fill="none" stroke="#000000" points="256.5,-538 185.5,-538 185.5,-502 256.5,-502 256.5,-538"/>
<text text-anchor="middle" x="221" y="-517.2" font-family="Courier,monospace" font-size="11.00" fill="#000000">viewZone</text>
</g>
<!-- \\widgets -->
<g id="node43" class="node">
<title>\\widgets</title>
<polygon fill="none" stroke="#000000" points="253,-484 189,-484 189,-448 253,-448 253,-484"/>
<text text-anchor="middle" x="221" y="-463.2" font-family="Courier,monospace" font-size="11.00" fill="#000000">widgets</text>
</g>
<!-- \\com_http -->
<g id="node44" class="node">
<title>\\com_http</title>
<polygon fill="none" stroke="#000000" points="256.5,-430 185.5,-430 185.5,-394 256.5,-394 256.5,-430"/>
<text text-anchor="middle" x="221" y="-409.2" font-family="Courier,monospace" font-size="11.00" fill="#000000">com_http</text>
</g>
<!-- \\com_shell -->
<g id="node45" class="node">
<title>\\com_shell</title>
<polygon fill="none" stroke="#000000" points="259.5,-376 182.5,-376 182.5,-340 259.5,-340 259.5,-376"/>
<text text-anchor="middle" x="221" y="-355.2" font-family="Courier,monospace" font-size="11.00" fill="#000000">com_shell</text>
</g>
<!-- \\repo_file -->
<g id="node46" class="node">
<title>\\repo_file</title>
<polygon fill="none" stroke="#000000" points="259.5,-322 182.5,-322 182.5,-286 259.5,-286 259.5,-322"/>
<text text-anchor="middle" x="221" y="-301.2" font-family="Courier,monospace" font-size="11.00" fill="#000000">repo_file</text>
</g>
<!-- \\repo_github -->
<g id="node47" class="node">
<title>\\repo_github</title>
<polygon fill="none" stroke="#000000" points="266.5,-268 175.5,-268 175.5,-232 266.5,-232 266.5,-268"/>
<text text-anchor="middle" x="221" y="-247.2" font-family="Courier,monospace" font-size="11.00" fill="#000000">repo_github</text>
</g>
<!-- \\repo_market -->
<g id="node48" class="node">
<title>\\repo_market</title>
<polygon fill="none" stroke="#000000" points="266.5,-214 175.5,-214 175.5,-178 266.5,-178 266.5,-214"/>
<text text-anchor="middle" x="221" y="-193.2" font-family="Courier,monospace" font-size="11.00" fill="#000000">repo_market</text>
</g>
<!-- \\repo_samba -->
<g id="node49" class="node">
<title>\\repo_samba</title>
<polygon fill="none" stroke="#000000" points="263,-160 179,-160 179,-124 263,-124 263,-160"/>
<text text-anchor="middle" x="221" y="-139.2" font-family="Courier,monospace" font-size="11.00" fill="#000000">repo_samba</text>
</g>
<!-- \\repo_url -->
<g id="node50" class="node">
<title>\\repo_url</title>
<polygon fill="none" stroke="#000000" points="256.5,-106 185.5,-106 185.5,-70 256.5,-70 256.5,-106"/>
<text text-anchor="middle" x="221" y="-85.2" font-family="Courier,monospace" font-size="11.00" fill="#000000">repo_url</text>
</g>
<!-- \\userFunction -->
<g id="node51" class="node">
<title>\\userFunction</title>
<polygon fill="none" stroke="#000000" points="270,-52 172,-52 172,-16 270,-16 270,-52"/>
<text text-anchor="middle" x="221" y="-31.2" font-family="Courier,monospace" font-size="11.00" fill="#000000">userFunction</text>
</g>
</g>
</svg>
